<svg xmlns="http://www.w3.org/2000/svg" viewBox="0 0 100 100">
  <defs>
    <linearGradient id="cardGradient" x1="0%" y1="0%" x2="100%" y2="100%">
      <stop offset="0%" style="stop-color:#4f46e5;stop-opacity:1" />
      <stop offset="100%" style="stop-color:#0ea5e9;stop-opacity:1" />
    </linearGradient>
  </defs>
  
  <!-- Background -->
  <rect width="100" height="100" fill="#f8fafc"/>
  
  <!-- Main card -->
  <rect x="15" y="20" width="70" height="45" rx="8" ry="8" fill="url(#cardGradient)" stroke="#1e293b" stroke-width="2"/>
  
  <!-- Card content lines -->
  <rect x="22" y="28" width="30" height="3" rx="1.5" fill="white" opacity="0.9"/>
  <rect x="22" y="35" width="45" height="3" rx="1.5" fill="white" opacity="0.9"/>
  <rect x="22" y="42" width="25" height="3" rx="1.5" fill="white" opacity="0.9"/>
  
  <!-- Shadow card behind -->
  <rect x="20" y="35" width="70" height="45" rx="8" ry="8" fill="#e2e8f0" stroke="#64748b" stroke-width="1"/>
  
  <!-- Brain icon -->
  <circle cx="75" cy="25" r="12" fill="#10b981"/>
  <path d="M70 22 Q75 18 80 22 Q82 25 80 28 Q75 32 70 28 Q68 25 70 22 Z" fill="white"/>
  <circle cx="73" cy="24" r="1.5" fill="#10b981"/>
  <circle cx="77" cy="26" r="1.5" fill="#10b981"/>
</svg>