<svg width="1200" height="630" viewBox="0 0 1200 630" fill="none" xmlns="http://www.w3.org/2000/svg">
  <!-- Background gradient -->
  <defs>
    <linearGradient id="bgGradient" x1="0%" y1="0%" x2="100%" y2="100%">
      <stop offset="0%" style="stop-color:#4f46e5"/>
      <stop offset="100%" style="stop-color:#7c3aed"/>
    </linearGradient>
    <linearGradient id="cardGradient" x1="0%" y1="0%" x2="100%" y2="100%">
      <stop offset="0%" style="stop-color:#ffffff"/>
      <stop offset="100%" style="stop-color:#f8fafc"/>
    </linearGradient>
    <filter id="shadow" x="-20%" y="-20%" width="140%" height="140%">
      <feDropShadow dx="0" dy="10" stdDeviation="20" flood-opacity="0.3"/>
    </filter>
    <filter id="smallShadow" x="-20%" y="-20%" width="140%" height="140%">
      <feDropShadow dx="0" dy="4" stdDeviation="8" flood-opacity="0.2"/>
    </filter>
  </defs>

  <!-- Background -->
  <rect width="1200" height="630" fill="url(#bgGradient)"/>

  <!-- Decorative circles -->
  <circle cx="100" cy="100" r="200" fill="white" fill-opacity="0.05"/>
  <circle cx="1100" cy="530" r="250" fill="white" fill-opacity="0.05"/>
  <circle cx="900" cy="50" r="100" fill="white" fill-opacity="0.03"/>

  <!-- Main flashcard stack -->
  <!-- Back card 2 -->
  <rect x="640" y="140" width="380" height="240" rx="16" fill="white" fill-opacity="0.3" transform="rotate(6 830 260)"/>
  <!-- Back card 1 -->
  <rect x="640" y="140" width="380" height="240" rx="16" fill="white" fill-opacity="0.5" transform="rotate(3 830 260)"/>
  <!-- Front card -->
  <rect x="640" y="140" width="380" height="240" rx="16" fill="url(#cardGradient)" filter="url(#shadow)"/>

  <!-- Card content -->
  <text x="830" y="220" font-family="system-ui, -apple-system, sans-serif" font-size="18" fill="#6b7280" text-anchor="middle">Question</text>
  <text x="830" y="270" font-family="system-ui, -apple-system, sans-serif" font-size="24" fill="#1f2937" text-anchor="middle" font-weight="600">What is spaced repetition?</text>

  <!-- Progress bar on card -->
  <rect x="700" y="320" width="260" height="8" rx="4" fill="#e5e7eb"/>
  <rect x="700" y="320" width="180" height="8" rx="4" fill="#4f46e5"/>

  <!-- Rating buttons -->
  <rect x="680" y="345" width="50" height="24" rx="4" fill="#fecaca"/>
  <text x="705" y="362" font-family="system-ui, sans-serif" font-size="11" fill="#dc2626" text-anchor="middle">Again</text>

  <rect x="740" y="345" width="50" height="24" rx="4" fill="#fed7aa"/>
  <text x="765" y="362" font-family="system-ui, sans-serif" font-size="11" fill="#ea580c" text-anchor="middle">Hard</text>

  <rect x="800" y="345" width="50" height="24" rx="4" fill="#bbf7d0"/>
  <text x="825" y="362" font-family="system-ui, sans-serif" font-size="11" fill="#16a34a" text-anchor="middle">Good</text>

  <rect x="860" y="345" width="50" height="24" rx="4" fill="#bfdbfe"/>
  <text x="885" y="362" font-family="system-ui, sans-serif" font-size="11" fill="#2563eb" text-anchor="middle">Easy</text>

  <!-- Left side content -->
  <!-- App icon -->
  <rect x="80" y="180" width="80" height="80" rx="20" fill="white" filter="url(#smallShadow)"/>
  <text x="120" y="235" font-size="40" text-anchor="middle">📚</text>

  <!-- App name -->
  <text x="80" y="310" font-family="system-ui, -apple-system, sans-serif" font-size="48" fill="white" font-weight="700">FSRS Flashcards</text>

  <!-- Tagline -->
  <text x="80" y="360" font-family="system-ui, -apple-system, sans-serif" font-size="24" fill="white" fill-opacity="0.9">Smart Spaced Repetition Learning</text>

  <!-- Features -->
  <g fill="white" font-family="system-ui, -apple-system, sans-serif" font-size="18">
    <text x="80" y="420" fill-opacity="0.85">✓ FSRS Algorithm</text>
    <text x="280" y="420" fill-opacity="0.85">✓ AI-Powered</text>
    <text x="450" y="420" fill-opacity="0.85">✓ Free</text>
  </g>

  <!-- URL -->
  <text x="80" y="480" font-family="system-ui, -apple-system, sans-serif" font-size="20" fill="white" fill-opacity="0.7">www.eggyeggs.com</text>

  <!-- Brain/learning icons decoration -->
  <text x="1050" y="500" font-size="60" fill-opacity="0.15">🧠</text>
  <text x="150" y="550" font-size="40" fill-opacity="0.1">💡</text>
</svg>
